<svg width="50" height="50" viewBox="0 0 50 50" fill="none" xmlns="http://www.w3.org/2000/svg">
<path d="M49.8729 14.7002C49.7558 12.0435 49.3261 10.217 48.7105 8.63437C48.0755 6.95443 47.0986 5.45038 45.8186 4.20005C44.568 2.93027 43.0538 1.94359 41.393 1.31862C39.8009 0.703188 37.9836 0.273568 35.3264 0.156434C32.6493 0.029379 31.7995 0 25.0097 0C18.22 0 17.3701 0.029379 14.703 0.146513C12.0458 0.263648 10.219 0.69365 8.6364 1.3087C6.95576 1.94359 5.45142 2.92035 4.20085 4.20005C2.93083 5.45038 1.94434 6.96435 1.31887 8.62483C0.703322 10.217 0.27362 12.0336 0.156463 14.6903C0.0293846 17.3668 0 18.2165 0 25.005C0 31.7934 0.0293846 32.6431 0.146541 35.3097C0.263698 37.9664 0.693782 39.7929 1.30933 41.3755C1.94434 43.0555 2.93083 44.5595 4.20085 45.8099C5.45142 47.0797 6.96568 48.0663 8.62648 48.6913C10.219 49.3067 12.0359 49.7364 14.6934 49.8535C17.3602 49.971 18.2104 50 25.0002 50C31.7899 50 32.6398 49.971 35.3069 49.8535C37.9641 49.7364 39.7909 49.3067 41.3735 48.6913C44.7344 47.3921 47.3916 44.7354 48.691 41.3755C49.3062 39.7834 49.7363 37.9664 49.8535 35.3097C49.9706 32.6431 50 31.7934 50 25.005C50 18.2165 49.9901 17.3668 49.8729 14.7002ZM45.3694 35.1144C45.2618 37.5563 44.8516 38.8749 44.5097 39.754C43.6693 41.9322 41.9402 43.661 39.7616 44.5012C38.8823 44.843 37.5539 45.2532 35.1211 45.3604C32.4833 45.4779 31.6922 45.5069 25.0197 45.5069C18.3471 45.5069 17.546 45.4779 14.9178 45.3604C12.4755 45.2532 11.1566 44.843 10.2774 44.5012C9.19318 44.1005 8.20632 43.4657 7.4053 42.6354C6.5749 41.8246 5.93989 40.8479 5.53919 39.7639C5.19726 38.8848 4.78702 37.5563 4.67978 35.1243C4.56225 32.4871 4.53324 31.6957 4.53324 25.0244C4.53324 18.3531 4.56225 17.5522 4.67978 14.9249C4.78702 12.483 5.19726 11.1644 5.53919 10.2853C5.93989 9.20097 6.5749 8.21467 7.41522 7.41343C8.22578 6.58318 9.20272 5.94829 10.2873 5.54805C11.1665 5.20619 12.4953 4.79603 14.9278 4.68843C17.5655 4.5713 18.357 4.54192 25.0292 4.54192C31.7117 4.54192 32.5028 4.5713 35.131 4.68843C37.5734 4.79603 38.8922 5.20619 39.7715 5.54805C40.8557 5.94829 41.8425 6.58318 42.6435 7.41343C43.4739 8.22421 44.109 9.20097 44.5097 10.2853C44.8516 11.1644 45.2618 12.4926 45.3694 14.9249C45.4866 17.5622 45.516 18.3531 45.516 25.0244C45.516 31.6957 45.4866 32.4771 45.3694 35.1144Z" fill="#1f1f1f"/>
<path d="M25.3472 12.5C18.2546 12.5 12.5 18.2542 12.5 25.3472C12.5 32.4402 18.2546 38.1944 25.3472 38.1944C32.4402 38.1944 38.1944 32.4402 38.1944 25.3472C38.1944 18.2542 32.4402 12.5 25.3472 12.5ZM25.3472 33.6809C20.7459 33.6809 17.0135 29.9489 17.0135 25.3472C17.0135 20.7455 20.7459 17.0135 25.3472 17.0135C29.9489 17.0135 33.6809 20.7455 33.6809 25.3472C33.6809 29.9489 29.9489 33.6809 25.3472 33.6809V33.6809Z" fill="#1f1f1f"/>
<path d="M41.667 11.4583C41.667 13.1841 40.2678 14.5833 38.5418 14.5833C36.8162 14.5833 35.417 13.1841 35.417 11.4583C35.417 9.73222 36.8162 8.33334 38.5418 8.33334C40.2678 8.33334 41.667 9.73222 41.667 11.4583V11.4583Z" fill="white"/>
</svg>
